<svg width="400" height="400" viewBox="0 0 400 400" fill="none" xmlns="http://www.w3.org/2000/svg">
<path d="M200 25.7812C183.723 25.7812 169.531 41.5937 169.531 62.5C169.531 83.4063 183.723 99.2188 200 99.2188C216.277 99.2188 230.469 83.4063 230.469 62.5C230.469 41.5937 216.277 25.7812 200 25.7812ZM86.1391 42.9172L72.8656 49.5547C84.5195 66.857 98.032 86.2836 111.741 103.42C127.137 122.665 142.952 138.613 153.145 143.71L157.031 145.654V176.496C178.227 179.315 193.372 180.388 210.059 179.691C209.543 179.309 209.03 178.926 208.535 178.535C204.695 175.504 201.363 172.124 198.77 168.491C194.184 168.033 190.506 165.074 188.307 161.734C185.914 158.101 184.737 153.732 184.737 149.029C184.737 144.326 185.914 139.957 188.307 136.323C190.701 132.69 194.841 129.498 200 129.498C205.159 129.498 209.299 132.689 211.693 136.323C214.086 139.957 215.263 144.326 215.263 149.029C215.263 153.732 214.086 158.101 211.693 161.734C211.646 161.808 211.591 161.879 211.543 161.951C213.043 163.793 214.93 165.668 217.248 167.498C222.157 171.374 228.75 174.888 236.584 177.388C238.655 177.135 240.777 176.865 242.969 176.576V145.654L246.855 143.71C257.049 138.613 272.863 122.663 288.26 103.419C301.968 86.2828 315.48 66.8563 327.135 49.5539L313.862 42.9164C277.395 79.2359 240.462 113.281 200 113.281C159.538 113.281 122.604 79.2359 86.1391 42.9172ZM108.869 183.487L118.362 230.959C197.313 238.273 202.687 238.273 281.638 230.959L291.127 183.51C205.127 197.141 194.862 196.919 108.87 183.487L108.869 183.487ZM139.528 247.03L149.958 330.468H250.044L260.472 247.03C207.534 251.743 192.466 251.743 139.528 247.03ZM107.031 344.531V360.156H292.969V344.531H107.031ZM12.5 373.438V387.5H387.5V373.438H12.5Z" fill="black"/>
</svg>
