<svg width="400" height="400" viewBox="0 0 400 400" fill="none" xmlns="http://www.w3.org/2000/svg">
<path d="M150 13.7891L162.5 40.3516H237.5L250 13.7891H150ZM142.969 55.1953V95.7812H167.969V113.125C152.891 106.094 134.687 106.719 125 106.719C85.5469 106.719 60.8594 123.828 47.2656 144.219C33.6719 164.609 30.4688 187.578 30.4688 201.25C30.4688 242.266 60.625 275 95.5469 303.594C130.469 332.109 171.094 357.266 195 381.25L200 386.172L205 381.25C228.906 357.266 269.531 332.109 304.453 303.594C339.375 275 369.531 242.266 369.531 201.25C369.531 187.578 366.328 164.609 352.734 144.219C339.141 123.828 314.453 106.719 275 106.719C265.313 106.719 247.109 106.094 232.031 113.125V95.7812H257.031V55.1953H142.969ZM157.031 69.2578H242.969V81.7187H157.031V69.2578ZM182.031 95.7812H217.969V143.203L230 131.25C239.141 122.031 262.5 120.781 275 120.781C310.547 120.781 329.609 134.922 341.016 152.031C352.422 169.141 355.469 189.922 355.469 201.25C355.469 235.234 329.375 265.078 295.547 292.656C263.75 318.75 226.016 342.266 200 366.641C173.984 342.266 136.25 318.75 104.453 292.656C70.625 265.078 44.5312 235.234 44.5312 201.25C44.5312 189.922 47.5781 169.141 58.9844 152.031C70.3906 134.922 89.4531 120.781 125 120.781C137.5 120.781 160.859 122.031 170 131.25L182.031 143.203V95.7812ZM150 151.25C100 151.25 87.5 188.75 87.5 213.75C87.5 263.75 150 288.75 200 326.25C250 288.75 312.5 263.75 312.5 213.75C312.5 188.75 300 151.25 250 151.25C225 151.25 212.5 151.25 200 188.75C187.5 151.25 175 151.25 150 151.25ZM248.203 162.656C251.016 162.578 252.813 162.891 252.734 163.125C239.844 168.828 226.25 182.188 217.891 195.703C217.891 195.703 215.391 181.875 225.625 170.781C231.406 164.453 242.109 162.734 248.203 162.656ZM150 163.75C131.25 180.547 117.734 209.219 113.125 234.375C113.125 234.375 97.8906 215.859 107.109 192.656C114.766 173.516 146.25 164.141 150 163.75Z" fill="black"/>
</svg>
