<svg width="400" height="400" viewBox="0 0 400 400" fill="none" xmlns="http://www.w3.org/2000/svg">
<path d="M295.563 45.9515C292.477 51.096 291.364 57.1585 293.822 62.171C300.404 66.4632 333.641 74.5163 330.764 85.4311C330.152 87.2288 329.915 88.1968 329.58 89.5124C323.799 84.228 312.032 81.6608 307.782 82.4429C304.007 83.1015 300.187 84.8257 296.501 84.9804C291.824 84.9554 287.641 83.796 284.059 81.6569C286.591 88.6437 295.661 93.7952 301.285 92.9163C310.127 91.1522 319.672 95.8249 326.112 98.1272C322.163 108.955 308.914 103.857 308.914 103.857L213.651 81.9663L197.999 70.664L184.452 84.5077L253.941 107.266L160.173 109.357L136.808 99.6022L104.956 118.053L247.917 128.437L204.002 174.863H281.517C296.627 162.562 330.743 134.863 331.24 135.181C341.292 158.598 357.221 150.043 369.377 136.392C372.904 132.432 376.775 146.05 378.768 123.88C379.268 123.099 379.719 122.309 380.152 121.513C366.068 115.528 342.199 125.991 355.295 107.457C359.307 101.783 371.527 103.319 384.101 110.558C384.555 98.6351 383.276 77.4366 372.004 72.7538C360.402 67.9343 345.423 68.4726 339.726 74.8491C331.955 61.6616 308.809 59.9507 299.642 58.6272C296.945 54.3858 296.081 50.4405 295.562 45.9507L295.563 45.9515ZM148.431 92.2296L144.87 95.3811L157.478 100.735L165.956 92.2296H148.431ZM364.508 111.256C369.619 115.012 369.984 115.899 373.409 116.022C374.656 115.224 377.409 112.418 374.859 111.826L366.234 110.105C365.344 109.946 364.656 110.61 364.508 111.256ZM115.755 125.344L111.106 129.456H128.63L133.28 125.344H115.755ZM85.0633 135.967L75.6883 147.965H88.075L92.3414 142.954H125.616L119.416 148.376H131.879L144.379 136.379L85.0633 135.967ZM97.3008 148.415L15.8203 241.869L33.8102 238.341L110.855 148.416L97.3008 148.415ZM196.327 182.981L93.6539 291.531L80.6094 294.863C80.6094 294.863 70.5328 318.155 65.8953 345.691C71.8789 348.904 79.4813 339.425 79.4813 339.425C79.4813 339.425 78.6219 349.651 84.6687 347.037C95.682 324.717 108 301.53 108 301.53L232.782 206.314L249.184 210.676L270.87 216.447L221.997 262.327L213.217 252.835C213.217 252.835 186.405 282.576 176.26 304.573C179.487 308.276 192.143 298.604 192.143 298.604C192.143 298.604 187.948 306.116 193.652 305.877C207.565 292.835 216.841 282.576 216.841 282.576L320.607 205.589L282.927 182.981H196.327Z" fill="black"/>
</svg>
