<svg width="400" height="400" viewBox="0 0 400 400" fill="none" xmlns="http://www.w3.org/2000/svg">
<path d="M200.234 15.5859C168.203 15.5859 142.344 41.1328 142.344 72.8281C142.344 90.7813 148.594 99.2188 155.469 110.156C160.078 117.422 164.844 125.859 167.578 137.969H232.422C235.156 125.547 239.922 117.031 244.531 109.687C251.484 98.6719 257.656 90.3906 257.656 72.8281C257.656 41.1328 232.031 15.5859 200.234 15.5859ZM89.2187 21.6016L63.2812 27.6563L126.719 59.1016L89.2187 21.6016ZM310.781 21.6016L273.281 59.1016L336.719 27.6563L310.781 21.6016ZM164.453 61.875L200 79.6094L235.547 61.875L219.297 126.719L205.703 123.281L214.453 88.125L200 95.3906L185.547 88.125L194.297 123.281L180.703 126.719L164.453 61.875ZM50 75.0234V100.078L125 87.5L50 75.0234ZM350 75.0234L275 87.5L350 100V75.0234ZM261.094 112.734L292.266 162.188L311.094 150.234L261.094 112.734ZM138.906 112.812L88.9063 150.312L107.734 162.266L138.906 112.812ZM168.75 149.219V161.719H231.25V149.219H168.75ZM195.625 171.328C184.922 171.328 174.609 171.719 167.734 172.109C114.453 180.469 102.969 254.453 115.625 321.797H134.063L133.281 239.453L147.812 239.297C146.719 289.062 149.062 338.203 152.109 387.5H192.266V304.922H206.875V387.5H246.25C249.766 336.719 250.859 284.766 251.328 239.297L265.937 239.453L265.078 321.797H284.297C298.594 252.656 280.547 182.031 231.875 172.891C224.531 171.797 212.422 171.328 200.156 171.328H195.625Z" fill="black"/>
</svg>
