<svg width="400" height="400" viewBox="0 0 400 400" fill="none" xmlns="http://www.w3.org/2000/svg">
<path d="M257.656 184.133L306.742 119.516L340.227 144.953L291.141 209.602L257.656 184.133ZM247.609 176.688L299.805 107.938L264.648 81.2578L212.453 150.008L247.609 176.688ZM226.141 100.297L211.063 131.211L255.594 72.6172L222.383 47.3828L194.07 84.6563L226.141 100.297ZM209.938 43.0781L173.5 15.3984L140.688 58.6094L182.617 79.0547L209.938 43.0781ZM293.531 227.078L184.938 146.836L177.188 147.547L180.75 149.109L229.312 257.258L216.406 259.016L171.344 158.625L140.094 144.797L136.969 120.703L167.758 135.875L196.164 133.273L209.445 106.062L122.805 63.8047L59.7734 151.703L138.75 270.836L121.016 384.602H266.406V291.109L293.977 252.883L302.344 215.445L293.531 227.078Z" fill="black"/>
</svg>
