<svg width="400" height="400" viewBox="0 0 400 400" fill="none" xmlns="http://www.w3.org/2000/svg">
<path d="M52.2578 14.0625L100 100L14.0625 91.4062V116.797L75 162.5L14.0625 192.969V220.312L100 237.5L97.1875 250C87.3438 259.453 80.0781 270.703 74.9531 283.203C63.6797 310.703 61.9531 350.156 61.75 385.938H75.8906C76.1562 351.484 78.0625 312.656 87.9687 288.516C94.9219 271.406 105.469 257.578 122.812 247.813C119.609 230.625 117.969 213.828 117.969 200V188.594L128.125 193.75C135.625 197.422 141.016 198.594 146.172 198.203C142.109 187.266 139.844 175.078 139.844 162.5C139.844 139.766 146.953 119.375 158.047 104.922C169.141 90.4688 183.906 82.0312 200 82.0312C216.094 82.0312 230.859 90.4688 241.953 104.922C253.047 119.375 260.156 139.766 260.156 162.5C260.156 175.078 257.891 187.266 253.828 198.203C258.984 198.594 264.453 197.422 271.875 193.75L282.031 188.594V200C282.031 213.828 280.391 230.625 277.187 247.813C294.531 257.578 305.078 271.406 312.031 288.516C321.953 312.656 323.828 351.484 324.141 385.938H338.281C338.047 350.156 336.328 310.703 325.078 283.203C319.922 270.703 312.656 259.375 302.734 249.922L300 237.5L385.938 220.312V192.969L325 162.5L385.938 116.797V91.4062L300 100L347.734 14.0625H318.203L237.5 62.5L222.969 14.0625H177.031L162.5 62.5L81.7969 14.0625H52.2578ZM162.5 167.969V182.031H187.5V167.969H162.5ZM212.5 167.969V182.031H237.5V167.969H212.5ZM186.25 196.172C176.328 201.406 167.734 206.719 158.438 209.766C150.625 212.422 141.953 212.969 132.422 210.391C132.812 216.641 133.437 223.438 134.297 230.469C155.547 230.156 174.688 227.891 195 207.5L196.328 206.25L186.25 196.172ZM213.75 196.172L203.672 206.25L205 207.5C225.312 227.891 244.453 230.156 265.703 230.469C266.563 223.438 267.188 216.641 267.578 210.391C258.047 212.969 249.375 212.422 241.563 209.766C232.266 206.719 223.672 201.406 213.75 196.172ZM200 222.109C178.906 240.625 156.875 243.828 136.484 244.375C137.812 251.406 139.297 258.438 141.172 265.391C142.891 271.875 144.922 278.125 147.109 284.063C151.484 275.859 157.031 267.969 162.5 262.5C162.5 278.906 157.109 289.844 153.437 299.062C156.406 305 159.531 310.312 162.891 314.687L182.031 295.547V312.5C182.031 323.828 184.219 327.422 187.812 330.938C190.469 333.672 194.922 336.328 200 340.547C205.078 336.328 209.531 333.672 212.188 330.938C215.781 327.422 217.969 323.828 217.969 312.5V295.547L237.109 314.687C240.469 310.312 243.594 305 246.563 299.062C242.891 289.844 237.5 278.906 237.5 262.5C242.969 267.969 248.516 275.859 252.891 284.063C255.078 278.125 257.109 271.875 258.828 265.391C260.703 258.438 262.187 251.406 263.516 244.375C243.125 243.828 221.094 240.625 200 222.109Z" fill="black"/>
</svg>
